<svg width="361" height="54" viewBox="0 0 361 54" fill="none" xmlns="http://www.w3.org/2000/svg">
<path d="M102.684 52.576V52.704C102.652 52.7764 102.614 52.846 102.57 52.9118L102.407 53.1036L102.245 53.2475C102.075 53.3893 101.883 53.5027 101.676 53.5831H101.595C101.393 53.6624 101.178 53.7057 100.961 53.7111H94.4598C94.2863 53.7166 94.1138 53.6852 93.9538 53.619C93.794 53.5528 93.6505 53.4533 93.5334 53.3274L86.4311 46.1021L81.7665 53.0716L81.6691 53.1995L81.5065 53.3913H81.2302C81.0999 53.5006 80.9515 53.5872 80.7914 53.6471L80.6289 53.727C80.425 53.8001 80.2116 53.8431 79.9951 53.8549H73.494C73.3207 53.8604 73.148 53.8291 72.9882 53.7628C72.8282 53.6967 72.6848 53.5972 72.5676 53.4712L70.146 50.7379L61.6297 53.727C61.4305 53.8152 61.2141 53.8588 60.9958 53.8549C60.7007 53.8629 60.4124 53.7663 60.1833 53.5831L60.0531 53.4553L55.99 48.8835C55.8275 49.427 55.6975 49.9705 55.5188 50.482L55.4213 50.7059C55.3932 50.7799 55.3549 50.8498 55.3075 50.9136L55.21 51.0415L55.0311 51.2333L54.8037 51.4412C54.678 51.536 54.5416 51.6165 54.3973 51.681L53.926 52.2564C53.7025 52.3388 53.4659 52.382 53.2271 52.3843H47.8964C47.724 52.393 47.5519 52.3645 47.3919 52.301C47.2319 52.2374 47.0879 52.1405 46.97 52.0166L45.2147 50.0345L44.4508 52.5281C44.4327 52.613 44.3996 52.6942 44.3533 52.768L44.2557 52.9758L44.1582 53.1036L43.9958 53.2954C43.9281 53.3728 43.8516 53.4425 43.7682 53.5032C43.6331 53.5926 43.4919 53.6726 43.3457 53.743L43.1344 53.8549C42.9168 53.9406 42.6859 53.9893 42.4517 53.9988H32.7977C32.6217 54.0066 32.4459 53.9764 32.2831 53.9101C32.1201 53.8438 31.9741 53.7431 31.8551 53.6151L30.4412 52.0166H25.3217L25.2079 52.4003C25.1882 52.4825 25.1609 52.5627 25.1266 52.64C25.0825 52.7059 25.0444 52.7754 25.0128 52.8478L24.9153 52.9758L24.7528 53.1676C24.685 53.245 24.6087 53.3146 24.5253 53.3754C24.3902 53.4646 24.249 53.5448 24.1026 53.6151L23.8914 53.727C23.6739 53.8128 23.443 53.8614 23.2088 53.8709H17.1792C17.0057 53.8765 16.8332 53.845 16.6732 53.7789C16.5133 53.7126 16.3698 53.6131 16.2528 53.4873L14.3837 51.3932H8.80907C8.63676 51.4018 8.46465 51.3735 8.30466 51.31C8.14466 51.2464 8.00067 51.1493 7.88272 51.0256L0.292781 42.937C0.353562 42.9974 0.425208 43.0462 0.504071 43.0809C0.363501 42.9989 0.246152 42.8834 0.162783 42.7452C0.0558174 42.5399 0 42.3125 0 42.0818C0 41.8511 0.0558174 41.6237 0.162783 41.4184C4.45539 32.746 7.97374 23.723 10.6782 14.4515V14.3396L10.1418 13.7321C10.1418 13.7321 10.2231 13.7321 10.2718 13.844C10.092 13.6816 9.96515 13.4704 9.90729 13.2371C9.84944 13.0038 9.86317 12.7588 9.94677 12.5332L11.7183 6.68266C11.8662 6.24115 12.1447 5.85312 12.5183 5.56832C12.8918 5.28352 13.3433 5.11493 13.8148 5.08414H20.3159L21.3723 1.59936C21.5221 1.15898 21.8012 0.77213 22.1743 0.487627C22.5474 0.203124 22.9979 0.0337249 23.4688 0.000846923H29.5473C29.7279 -0.00607137 29.9078 0.029476 30.0717 0.104535C30.2357 0.179593 30.3789 0.292009 30.4899 0.432454L32.5702 2.78228L32.7328 2.35067C32.8797 1.90559 33.1602 1.51469 33.5372 1.22937C33.9144 0.944053 34.3706 0.777682 34.8457 0.752153H56.3151C56.4952 0.748979 56.6738 0.786205 56.8372 0.860987C57.0004 0.935767 57.1443 1.04615 57.2578 1.18376L63.7588 8.55293L63.6451 2.41462C63.6541 2.14422 63.7193 1.87848 63.8366 1.63381C63.9541 1.38914 64.1211 1.17069 64.3276 0.991921C64.7204 0.590523 65.2567 0.355451 65.8229 0.336547H72.3238C72.5321 0.330242 72.7384 0.378779 72.9213 0.477139C73.1041 0.575498 73.257 0.720097 73.364 0.896013C73.3358 0.831807 73.2974 0.772443 73.2502 0.720175L78.126 6.17112L78.9549 3.43768C79.0988 2.99386 79.3764 2.60345 79.7507 2.31803C80.1251 2.03263 80.5785 1.86565 81.0514 1.83916H104.78C104.962 1.8316 105.142 1.86513 105.309 1.93718C105.475 2.00925 105.622 2.11789 105.739 2.25476L113.15 10.615L113.248 10.7269C113.327 10.8472 113.377 10.984 113.394 11.1265C113.394 11.1265 113.394 11.1265 113.394 11.2065C113.402 11.3236 113.402 11.441 113.394 11.5581C113.4 11.6486 113.4 11.7394 113.394 11.8299L105.934 36.2713L105.837 36.511L105.723 36.7188C105.723 36.7188 105.723 36.7987 105.625 36.8466L105.463 37.0385L105.219 37.2464C105.089 37.3422 104.943 37.4062 104.813 37.4861C104.683 37.5661 104.666 37.582 104.601 37.598C104.381 37.693 104.143 37.742 103.902 37.7418H100.652L101.936 39.1805V39.2924C102.018 39.4404 102.068 39.6037 102.082 39.7719L102.797 51.8248V52.2564C102.797 52.2564 102.797 52.2564 102.797 52.3683C102.797 52.4802 102.684 52.5281 102.684 52.576Z" fill="white"/>
<path d="M1.75547 41.7222C6.09548 32.9503 9.6572 23.8262 12.4009 14.4515H17.4554C14.7844 23.8035 11.3381 32.9242 7.15132 41.7222H1.75547ZM34.423 2.31873L32.6515 8.10539H54.0886L55.86 2.31873H34.423ZM17.9755 42.2817H24.0214C27.8134 36 30.8202 29.291 32.9765 22.3002H27.597C25.3633 29.354 22.1121 36.0562 17.943 42.2018L17.9755 42.2817ZM28.5233 13.892L26.7355 19.7745H36.9908L31.3188 38.3972H27.6132L25.8254 44.2318H35.4794L42.9231 19.7745H52.8859L54.6899 13.892H28.5233ZM23.9726 18.5437L25.793 12.5812H29.5473L31.335 6.73066H27.6132L29.2384 1.66336H23.0463L21.421 6.73066H13.376L11.5883 12.5812H19.7145L10.1255 44.2638H16.1552L21.811 25.689L23.9401 27.7511L26.1017 20.6538L23.9726 18.5437ZM43.8006 22.4921C43.9563 29.2617 43.0126 36.0123 41.0053 42.4895H46.3524C48.3712 36.0037 49.4652 29.2737 49.6028 22.4921H43.8006ZM71.9662 1.88715H65.384L65.5628 12.1017H72.1613L71.9662 1.88715ZM58.2004 15.2987L56.2988 21.5649H60.8333L53.926 44.2638L65.5791 40.1717L67.7082 33.1541L63.0599 34.7527L68.992 15.2827L58.2004 15.2987ZM72.974 44.2318L81.0189 32.1951H74.518L66.3917 44.2318H72.974ZM80.6776 3.40574L73.1853 27.9589H96.9138L104.39 3.40574H80.6776ZM92.5744 21.8367H81.2789L85.0171 9.51206H96.3938L92.6394 21.8367M86.4309 32.147L87.1461 44.1839H93.6471L92.9158 32.147H86.4309Z" fill="black"/>
<path d="M137.141 45.0246C136.461 45.0246 135.638 45.0008 134.673 44.9534C133.708 44.9217 132.719 44.8268 131.707 44.6686C130.71 44.5104 129.793 44.2494 128.954 43.8855C128.131 43.5216 127.506 43.0233 127.079 42.3905C126.747 41.8842 126.518 41.378 126.391 40.8717C126.28 40.3497 126.225 39.796 126.225 39.2106C126.225 37.2805 126.423 35.3663 126.818 33.4678C127.23 31.5536 127.696 29.6551 128.218 27.7725C128.74 25.8741 129.199 23.9756 129.595 22.0772C130.006 20.1788 130.212 18.2566 130.212 16.3107C130.212 15.14 130.077 13.9851 129.808 12.846C129.555 11.6912 129.152 10.5996 128.598 9.57124C130.671 9.33394 132.751 9.13618 134.839 8.97798C136.927 8.80396 139.016 8.71694 141.104 8.71694C142.006 8.71694 143.097 8.78022 144.379 8.90679C145.676 9.01753 147.013 9.22319 148.389 9.52378C149.766 9.82437 151.047 10.2515 152.234 10.8052C153.436 11.3589 154.409 12.0629 155.152 12.9172C155.912 13.7715 156.292 14.8157 156.292 16.0497C156.292 17.1729 156.023 18.2012 155.485 19.1346C154.947 20.068 154.251 20.9144 153.396 21.6738C152.542 22.4173 151.625 23.066 150.644 23.6197C149.679 24.1576 148.761 24.6005 147.891 24.9486C148.935 25.0752 150.035 25.2887 151.19 25.5893C152.36 25.8741 153.444 26.3012 154.441 26.8708C155.453 27.4245 156.276 28.1443 156.909 29.0302C157.541 29.9162 157.858 31.0078 157.858 32.305C157.858 34.2668 157.383 35.9674 156.434 37.4071C155.501 38.8467 154.267 40.057 152.732 41.0378C151.197 42.0187 149.505 42.8018 147.654 43.3872C145.819 43.9725 143.983 44.3918 142.148 44.6449C140.313 44.898 138.644 45.0246 137.141 45.0246ZM135.219 12.4901C135.108 14.5784 134.8 16.6429 134.293 18.6837C133.787 20.7087 133.273 22.7337 132.751 24.7587C133.843 24.7429 135.195 24.6717 136.809 24.5452C138.438 24.4186 140.123 24.2129 141.863 23.9282C143.604 23.6276 145.233 23.2163 146.752 22.6942C148.286 22.1563 149.528 21.476 150.478 20.6534C151.443 19.8149 151.925 18.7945 151.925 17.5921C151.925 16.6587 151.632 15.8677 151.047 15.2191C150.478 14.5705 149.726 14.0405 148.793 13.6292C147.875 13.2178 146.886 12.9014 145.826 12.6799C144.766 12.4426 143.738 12.2844 142.741 12.2053C141.761 12.1104 140.93 12.0629 140.25 12.0629C139.411 12.0629 138.565 12.0788 137.711 12.1104C136.872 12.142 136.042 12.2686 135.219 12.4901ZM131.968 40.5632C132.759 40.7214 133.779 40.8638 135.029 40.9904C136.279 41.117 137.624 41.1802 139.063 41.1802C140.677 41.1802 142.314 41.0458 143.975 40.7768C145.652 40.4921 147.187 40.0649 148.579 39.4954C149.987 38.91 151.118 38.1586 151.973 37.241C152.843 36.3076 153.278 35.1922 153.278 33.895C153.278 32.7717 152.906 31.8225 152.162 31.0473C151.435 30.2563 150.486 29.6156 149.315 29.1252C148.16 28.6347 146.918 28.255 145.589 27.9861C144.276 27.7171 143.01 27.5352 141.792 27.4403C140.574 27.3295 139.562 27.2742 138.755 27.2742C137.616 27.2742 136.485 27.3216 135.361 27.4166C134.238 27.5115 133.115 27.638 131.992 27.7962C131.738 28.9828 131.525 30.1693 131.351 31.3558C131.193 32.5423 131.114 33.7447 131.114 34.9628C131.114 35.8962 131.177 36.8296 131.303 37.763C131.446 38.6964 131.667 39.6298 131.968 40.5632Z" fill="white"/>
<path d="M162.556 40.3022C162.556 40.7768 162.667 41.2277 162.889 41.6548C163.11 42.082 163.379 42.4617 163.695 42.7939C163.173 43.2369 162.509 43.6878 161.702 44.1465C160.895 44.5895 160.096 44.811 159.305 44.811C158.04 44.811 157.407 44.1307 157.407 42.7702C157.407 41.726 157.676 40.5949 158.214 39.3767C158.767 38.1586 159.448 36.9325 160.255 35.6985C161.077 34.4645 161.916 33.2938 162.77 32.1864C163.624 31.079 164.368 30.1139 165.001 29.2913C165.839 28.1838 166.678 27.0764 167.516 25.969C168.355 24.8616 169.169 23.7462 169.96 22.623C170.641 21.6738 171.424 20.5743 172.31 19.3245C173.196 18.0588 173.971 16.7616 174.635 15.4327C175.315 14.0879 175.656 12.8223 175.656 11.6358C175.656 11.2877 175.616 10.9476 175.537 10.6154C175.458 10.2832 175.355 9.95884 175.228 9.64243C175.703 9.42095 176.249 9.20737 176.866 9.00171C177.483 8.79604 178.052 8.69321 178.574 8.69321C180.03 8.69321 181.169 8.96216 181.992 9.50005C182.814 10.0221 183.59 10.9001 184.317 12.1341C184.966 13.2257 185.456 14.4755 185.789 15.8835C186.121 17.2916 186.374 18.7233 186.548 20.1788C186.738 21.6342 186.92 22.9869 187.094 24.2367C187.299 25.6605 187.545 27.1793 187.829 28.7929C188.13 30.4066 188.51 31.9886 188.968 33.539C189.443 35.0894 190.036 36.4895 190.748 37.7393C191.365 38.7993 192.196 39.7169 193.24 40.4921C194.3 41.2514 195.36 41.908 196.42 42.4617C196.056 42.9679 195.558 43.49 194.925 44.0279C194.308 44.55 193.667 44.811 193.003 44.811C191.247 44.811 189.886 44.4313 188.921 43.6719C187.956 42.8967 187.07 41.7814 186.263 40.3259C185.741 39.3925 185.306 38.4512 184.958 37.502C184.61 36.537 184.325 35.564 184.104 34.5832C182.395 34.7097 180.679 34.7888 178.954 34.8205C177.23 34.8521 175.513 34.8679 173.805 34.8679C172.302 34.8679 170.807 34.8521 169.32 34.8205C167.832 34.773 166.345 34.6939 164.858 34.5832C164.194 35.7064 163.64 36.7664 163.197 37.763C162.77 38.7439 162.556 39.5903 162.556 40.3022ZM175.157 31.7592C176.549 31.7592 177.942 31.7751 179.334 31.8067C180.742 31.8225 182.15 31.8383 183.558 31.8542C183.257 30.019 183.004 28.1759 182.798 26.325C182.609 24.4582 182.308 22.6151 181.897 20.7958C181.501 18.9764 180.853 17.1966 179.951 15.4564C179.65 14.8869 179.286 14.3015 178.859 13.7003C177.973 15.6146 176.937 17.4418 175.751 19.1821C174.564 20.9065 173.377 22.6072 172.191 24.2841C171.621 25.091 170.823 26.1588 169.794 27.4877C168.782 28.8167 167.769 30.2168 166.757 31.688C168.133 31.7197 169.517 31.7434 170.91 31.7592C172.318 31.7592 173.733 31.7592 175.157 31.7592Z" fill="white"/>
<path d="M202.4 26.6097H202.424C202.787 25.0119 203.104 23.414 203.373 21.8162C203.642 20.2025 203.776 18.5809 203.776 16.9514C203.776 15.7016 203.634 14.4518 203.349 13.202C203.08 11.9522 202.566 10.821 201.807 9.80855C202.344 9.5396 202.961 9.27856 203.658 9.02544C204.354 8.77231 204.994 8.64575 205.58 8.64575C206.924 8.64575 207.826 9.08872 208.285 9.97466C208.76 10.8448 208.997 11.8573 208.997 13.0122C208.997 15.2586 208.681 17.5368 208.048 19.8465C207.415 22.1405 206.869 24.3949 206.41 26.6097H206.339C206.323 26.6572 206.315 26.6967 206.315 26.7284C207.882 26.2379 209.321 25.613 210.634 24.8537C211.947 24.0943 213.221 23.2479 214.455 22.3145C215.689 21.3811 217.002 20.4082 218.394 19.3957C219.423 18.6205 220.498 17.782 221.622 16.8802C222.761 15.9785 223.852 15.0609 224.896 14.1275C225.956 13.1941 226.874 12.2923 227.649 11.4222C228.44 10.5363 229.002 9.74526 229.334 9.04917C229.729 9.04917 230.188 9.11245 230.71 9.23901C231.232 9.34976 231.691 9.55542 232.087 9.85601C232.482 10.1408 232.68 10.5363 232.68 11.0425C232.68 11.4697 232.261 12.1104 231.422 12.9647C230.584 13.8032 229.484 14.7603 228.124 15.8361C226.763 16.9119 225.276 18.0272 223.662 19.1821C222.065 20.337 220.498 21.4444 218.964 22.5043C218.236 23.0106 217.477 23.5248 216.686 24.0468C215.91 24.5689 215.111 25.091 214.289 25.613C215.475 27.021 216.654 28.4291 217.825 29.8371C219.011 31.2451 220.198 32.6452 221.384 34.0374C222.887 35.7934 224.414 37.2489 225.964 38.4038C227.515 39.5587 229.484 40.2627 231.873 40.5158C231.762 41.1644 231.533 41.8368 231.185 42.5329C230.853 43.229 230.41 43.8143 229.856 44.2889C229.318 44.7477 228.669 44.9771 227.91 44.9771C226.961 44.9771 226.043 44.7003 225.157 44.1465C224.271 43.5928 223.449 42.9363 222.689 42.1769C221.93 41.4017 221.266 40.6819 220.696 40.0174C218.987 38.0399 217.303 36.0228 215.641 33.9662C213.996 31.8937 212.351 29.8212 210.706 27.7488C209.883 28.2076 209.036 28.6505 208.166 29.0777C207.312 29.5048 206.434 29.9083 205.532 30.2879C205.358 31.1739 205.2 32.0598 205.058 32.9458C204.931 33.8317 204.868 34.7097 204.868 35.5798C204.868 36.9562 205.097 38.2693 205.556 39.5191C206.031 40.7531 206.885 41.8368 208.119 42.7702C207.818 43.0075 207.423 43.2922 206.932 43.6245C206.442 43.9409 205.936 44.2256 205.414 44.4788C204.907 44.7319 204.464 44.8585 204.085 44.8585C202.55 44.8585 201.498 44.3522 200.929 43.3397C200.375 42.3114 200.098 41.0458 200.098 39.5428C200.098 38.4038 200.193 37.1935 200.383 35.9121C200.573 34.6148 200.802 33.3571 201.071 32.1389C201.34 30.9208 201.593 29.8292 201.83 28.8641C202.083 27.8833 202.273 27.1318 202.4 26.6097Z" fill="white"/>
<path d="M233.273 30.9049C232.672 30.3038 232.371 29.5839 232.371 28.7455C232.371 27.8595 232.648 27.1951 233.202 26.7521C233.772 26.2933 234.476 26.0639 235.314 26.0639C237.007 26.0639 238.7 26.143 240.392 26.3012C242.101 26.4594 243.802 26.5385 245.494 26.5385C245.858 26.5385 246.222 26.5464 246.586 26.5623C246.95 26.5623 247.314 26.5623 247.678 26.5623C248.121 26.5623 248.556 26.5543 248.983 26.5385C249.426 26.5227 249.861 26.4752 250.288 26.3961C250.446 26.4752 250.533 26.5939 250.549 26.7521C250.581 26.9103 250.596 27.0685 250.596 27.2267C250.596 28.4291 250.256 29.3229 249.576 29.9083C248.912 30.4936 248.081 30.8733 247.084 31.0473C246.103 31.2213 245.138 31.3084 244.189 31.3084C242.67 31.3084 241.16 31.2055 239.657 30.9999C238.154 30.7942 236.643 30.6914 235.124 30.6914C234.824 30.6914 234.515 30.7072 234.199 30.7388C233.882 30.7546 233.574 30.81 233.273 30.9049Z" fill="white"/>
<path d="M258.309 40.7056C258.309 38.3009 258.657 35.9279 259.353 33.5865C260.049 31.2293 260.666 28.9037 261.204 26.6097C261.568 25.0119 261.884 23.414 262.153 21.8162C262.422 20.2025 262.557 18.5809 262.557 16.9514C262.557 15.7016 262.414 14.4518 262.129 13.202C261.861 11.9522 261.346 10.821 260.587 9.80855C261.125 9.5396 261.742 9.27856 262.438 9.02544C263.134 8.77231 263.775 8.64575 264.36 8.64575C265.705 8.64575 266.607 9.08872 267.065 9.97466C267.54 10.8448 267.777 11.8573 267.777 13.0122C267.777 15.2586 267.461 17.5368 266.828 19.8465C266.195 22.1405 265.649 24.3949 265.191 26.6097C265.191 26.6255 265.183 26.6414 265.167 26.6572C265.167 26.673 265.167 26.6888 265.167 26.7046C264.756 28.6664 264.321 30.6439 263.862 32.6373C263.403 34.6306 263.174 36.6398 263.174 38.6648C263.174 39.2502 263.189 39.7801 263.221 40.2547C265.183 40.3338 267.137 40.3892 269.082 40.4209C271.044 40.4367 273.006 40.4446 274.968 40.4446C275.49 40.4446 276.162 40.4446 276.985 40.4446C277.823 40.4446 278.701 40.4288 279.619 40.3971C280.536 40.3655 281.391 40.3101 282.182 40.231C282.989 40.1519 283.613 40.0412 284.056 39.8988C283.898 41.4808 283.463 42.6357 282.751 43.3634C282.055 44.0754 281.161 44.5262 280.07 44.7161C278.978 44.9059 277.768 45.0008 276.439 45.0008C274.62 45.0008 272.792 44.9217 270.957 44.7635C269.138 44.6053 267.311 44.4313 265.475 44.2415C265.27 44.2098 265.048 44.1782 264.811 44.1465C264.574 44.1149 264.368 44.0833 264.194 44.0516C263.371 44.6212 262.509 44.9059 261.607 44.9059C260.31 44.9059 259.432 44.4867 258.973 43.6482C258.53 42.8097 258.309 41.8289 258.309 40.7056Z" fill="white"/>
<path d="M288.565 40.3022C288.565 40.7768 288.676 41.2277 288.897 41.6548C289.119 42.082 289.388 42.4617 289.704 42.7939C289.182 43.2369 288.518 43.6878 287.711 44.1465C286.904 44.5895 286.105 44.811 285.314 44.811C284.049 44.811 283.416 44.1307 283.416 42.7702C283.416 41.726 283.685 40.5949 284.223 39.3767C284.776 38.1586 285.457 36.9325 286.263 35.6985C287.086 34.4645 287.924 33.2938 288.779 32.1864C289.633 31.079 290.377 30.1139 291.009 29.2913C291.848 28.1838 292.686 27.0764 293.525 25.969C294.363 24.8616 295.178 23.7462 295.969 22.623C296.649 21.6738 297.432 20.5743 298.318 19.3245C299.204 18.0588 299.98 16.7616 300.644 15.4327C301.324 14.0879 301.664 12.8223 301.664 11.6358C301.664 11.2877 301.625 10.9476 301.546 10.6154C301.467 10.2832 301.364 9.95884 301.237 9.64243C301.712 9.42095 302.258 9.20737 302.875 9.00171C303.492 8.79604 304.061 8.69321 304.583 8.69321C306.039 8.69321 307.178 8.96216 308 9.50005C308.823 10.0221 309.598 10.9001 310.326 12.1341C310.975 13.2257 311.465 14.4755 311.797 15.8835C312.13 17.2916 312.383 18.7233 312.557 20.1788C312.747 21.6342 312.928 22.9869 313.103 24.2367C313.308 25.6605 313.553 27.1793 313.838 28.7929C314.139 30.4066 314.518 31.9886 314.977 33.539C315.452 35.0894 316.045 36.4895 316.757 37.7393C317.374 38.7993 318.205 39.7169 319.249 40.4921C320.309 41.2514 321.369 41.908 322.429 42.4617C322.065 42.9679 321.566 43.49 320.934 44.0279C320.317 44.55 319.676 44.811 319.011 44.811C317.255 44.811 315.895 44.4313 314.93 43.6719C313.965 42.8967 313.079 41.7814 312.272 40.3259C311.75 39.3925 311.315 38.4512 310.967 37.502C310.619 36.537 310.334 35.564 310.112 34.5832C308.404 34.7097 306.687 34.7888 304.963 34.8205C303.239 34.8521 301.522 34.8679 299.813 34.8679C298.311 34.8679 296.816 34.8521 295.328 34.8205C293.841 34.773 292.354 34.6939 290.867 34.5832C290.203 35.7064 289.649 36.7664 289.206 37.763C288.779 38.7439 288.565 39.5903 288.565 40.3022ZM301.166 31.7592C302.558 31.7592 303.95 31.7751 305.343 31.8067C306.751 31.8225 308.159 31.8383 309.567 31.8542C309.266 30.019 309.013 28.1759 308.807 26.325C308.617 24.4582 308.317 22.6151 307.906 20.7958C307.51 18.9764 306.861 17.1966 305.96 15.4564C305.659 14.8869 305.295 14.3015 304.868 13.7003C303.982 15.6146 302.946 17.4418 301.759 19.1821C300.573 20.9065 299.386 22.6072 298.2 24.2841C297.63 25.091 296.831 26.1588 295.803 27.4877C294.79 28.8167 293.778 30.2168 292.766 31.688C294.142 31.7197 295.526 31.7434 296.918 31.7592C298.326 31.7592 299.742 31.7592 301.166 31.7592Z" fill="white"/>
<path d="M329.049 44.8585C328.084 44.8585 327.357 44.6053 326.866 44.0991C326.376 43.5928 326.044 42.9521 325.87 42.1769C325.695 41.4017 325.608 40.6265 325.608 39.8513C325.608 37.8738 325.798 35.92 326.178 33.9899C326.574 32.0598 327.024 30.1377 327.531 28.2234C328.037 26.2933 328.48 24.3632 328.86 22.4332C329.255 20.4873 329.453 18.5176 329.453 16.5243C329.453 15.3852 329.334 14.2461 329.097 13.1071C328.86 11.968 328.417 10.9239 327.768 9.97466C328.274 9.61079 328.812 9.3023 329.382 9.04917C329.967 8.78022 330.576 8.64575 331.209 8.64575C332.728 8.64575 334.064 9.04917 335.219 9.85601C336.39 10.647 337.41 11.6753 338.281 12.941C339.151 14.1908 339.91 15.5118 340.559 16.904C341.223 18.2803 341.801 19.5539 342.291 20.7246C343.24 22.9552 344.158 25.0593 345.044 27.0369C345.93 28.9986 346.926 30.8733 348.034 32.661C349.157 34.4329 350.549 36.1415 352.21 37.7868C352.637 35.4612 353.16 33.1593 353.777 30.8812C354.394 28.6031 354.931 26.2933 355.39 23.9519C355.865 21.6105 356.086 19.1821 356.055 16.6667C356.039 15.4801 355.912 14.2936 355.675 13.1071C355.438 11.9206 354.979 10.829 354.299 9.83228C354.71 9.59497 355.232 9.34185 355.865 9.0729C356.498 8.78813 357.051 8.64575 357.526 8.64575C358.254 8.64575 358.792 8.85142 359.14 9.26274C359.503 9.67407 359.741 10.1882 359.852 10.8052C359.978 11.4064 360.041 11.9917 360.041 12.5613C360.041 14.5546 359.828 16.5243 359.401 18.4702C358.974 20.4002 358.475 22.3303 357.906 24.2604C357.336 26.1747 356.838 28.0968 356.411 30.0269C355.983 31.957 355.77 33.9187 355.77 35.9121C355.77 37.1777 355.96 38.3879 356.339 39.5428C356.719 40.6819 357.439 41.6469 358.499 42.438C358.182 43.0233 357.74 43.577 357.17 44.0991C356.616 44.6053 355.976 44.8585 355.248 44.8585C353.682 44.8585 352.242 44.4392 350.929 43.6007C349.616 42.7464 348.398 41.5995 347.274 40.1598C346.151 38.7044 345.099 37.0749 344.118 35.2713C343.153 33.452 342.228 31.5773 341.342 29.6472C340.456 27.7171 339.586 25.8424 338.731 24.0231C337.893 22.2038 337.047 20.5585 336.192 19.0872C335.338 17.6159 334.444 16.4531 333.511 15.5988C333.068 17.8136 332.498 20.0443 331.802 22.2908C331.122 24.5214 330.513 26.7758 329.975 29.054C329.437 31.3321 329.168 33.626 329.168 35.9358C329.168 37.154 329.35 38.3405 329.714 39.4954C330.078 40.6503 330.766 41.6232 331.778 42.4142C331.541 42.8572 331.169 43.3793 330.663 43.9804C330.157 44.5658 329.619 44.8585 329.049 44.8585Z" fill="white"/>
</svg>
