<svg width="201" height="30" viewBox="0 0 201 30" fill="none" xmlns="http://www.w3.org/2000/svg">
<path d="M57.0464 29.2089V29.28C57.0289 29.3202 57.0077 29.3589 56.9832 29.3954L56.8929 29.502L56.8026 29.582C56.7084 29.6607 56.6016 29.7237 56.4866 29.7684H56.4414C56.3293 29.8124 56.21 29.8365 56.0893 29.8395H52.4777C52.3813 29.8426 52.2854 29.8251 52.1966 29.7884C52.1078 29.7515 52.028 29.6963 51.963 29.6264L48.0173 25.6123L45.4259 29.4842L45.3717 29.5553L45.2814 29.6618H45.1279C45.0555 29.7226 44.9731 29.7707 44.8841 29.804L44.7938 29.8484C44.6806 29.8889 44.562 29.9129 44.4417 29.9194H40.83C40.7337 29.9225 40.6378 29.9051 40.549 29.8682C40.4601 29.8315 40.3805 29.7762 40.3154 29.7062L38.97 28.1877L34.2387 29.8484C34.1281 29.8973 34.0079 29.9216 33.8866 29.9194C33.7226 29.9238 33.5624 29.8702 33.4352 29.7684L33.3629 29.6974L31.1056 27.1575C31.0153 27.4595 30.9431 27.7614 30.8438 28.0456L30.7896 28.1699C30.774 28.211 30.7527 28.2499 30.7264 28.2854L30.6722 28.3564L30.5729 28.463L30.4465 28.5785C30.3767 28.6311 30.3009 28.6758 30.2207 28.7117L29.9589 29.0313C29.8347 29.0771 29.7033 29.1011 29.5706 29.1024H26.6091C26.5133 29.1072 26.4177 29.0914 26.3288 29.0561C26.24 29.0208 26.1599 28.967 26.0945 28.8981L25.1193 27.797L24.6949 29.1823C24.6848 29.2295 24.6665 29.2745 24.6407 29.3156L24.5865 29.431L24.5324 29.502L24.4421 29.6086C24.4045 29.6516 24.362 29.6903 24.3157 29.724C24.2406 29.7737 24.1622 29.8181 24.0809 29.8572L23.9636 29.9194C23.8427 29.967 23.7144 29.9941 23.5843 29.9993H18.221C18.1232 30.0037 18.0255 29.9869 17.9351 29.9501C17.8445 29.9132 17.7634 29.8573 17.6973 29.7862L16.9118 28.8981H14.0676L14.0044 29.1113C13.9934 29.1569 13.9783 29.2015 13.9592 29.2445C13.9347 29.2811 13.9136 29.3197 13.896 29.3599L13.8419 29.431L13.7516 29.5376C13.7139 29.5805 13.6715 29.6192 13.6252 29.653C13.5501 29.7026 13.4717 29.7471 13.3904 29.7862L13.273 29.8484C13.1522 29.896 13.0239 29.923 12.8938 29.9283H9.54398C9.4476 29.9314 9.35175 29.9139 9.26288 29.8772C9.17408 29.8403 9.09435 29.7851 9.02933 29.7152L7.99095 28.5518H4.89393C4.7982 28.5566 4.70258 28.5408 4.6137 28.5056C4.52481 28.4702 4.44482 28.4163 4.37929 28.3475L0.162656 23.8539C0.196424 23.8874 0.236227 23.9146 0.28004 23.9339C0.201945 23.8883 0.136751 23.8241 0.090435 23.7473C0.0310097 23.6333 0 23.507 0 23.3788C0 23.2506 0.0310097 23.1243 0.090435 23.0102C2.47522 18.1922 4.42985 13.1795 5.93231 8.0286V7.96643L5.63433 7.62893C5.63433 7.62893 5.67949 7.62893 5.70658 7.6911C5.60667 7.60088 5.53619 7.48355 5.50405 7.35394C5.47191 7.22432 5.47954 7.08824 5.52599 6.9629L6.51016 3.71259C6.59231 3.4673 6.74707 3.25173 6.95459 3.09351C7.16211 2.93529 7.41293 2.84163 7.6749 2.82452H11.2866L11.8735 0.888533C11.9567 0.643878 12.1118 0.428961 12.3191 0.270904C12.5264 0.112847 12.7766 0.0187361 13.0382 0.000470513H16.4152C16.5155 -0.00337298 16.6154 0.0163756 16.7065 0.058075C16.7976 0.099774 16.8772 0.162227 16.9388 0.240252L18.0946 1.54571L18.1849 1.30593C18.2665 1.05866 18.4223 0.841493 18.6318 0.682984C18.8414 0.524474 19.0948 0.432046 19.3587 0.417863H31.2862C31.3862 0.416099 31.4855 0.436781 31.5762 0.478326C31.6669 0.519871 31.7468 0.581193 31.8099 0.657644L35.4215 4.75163L35.3584 1.34146C35.3634 1.19123 35.3996 1.0436 35.4648 0.907673C35.5301 0.771743 35.6228 0.650381 35.7376 0.551067C35.9558 0.328068 36.2537 0.197473 36.5683 0.186971H40.1799C40.2956 0.183468 40.4102 0.210433 40.5119 0.265077C40.6134 0.319721 40.6983 0.400054 40.7578 0.497785C40.7421 0.462115 40.7208 0.429135 40.6946 0.400097L43.4033 3.4284L43.8638 1.90982C43.9438 1.66325 44.098 1.44636 44.306 1.2878C44.5139 1.12924 44.7659 1.03647 45.0286 1.02176H58.2112C58.312 1.01756 58.4125 1.03619 58.5049 1.07621C58.5972 1.11625 58.679 1.17661 58.7439 1.25264L62.8612 5.89722L62.9153 5.9594C62.9595 6.02622 62.9873 6.10222 62.9966 6.18141C62.9966 6.18141 62.9966 6.18141 62.9966 6.22582C63.0011 6.29087 63.0011 6.35613 62.9966 6.42118C62.9998 6.47145 62.9998 6.52189 62.9966 6.57216L58.8522 20.1507L58.7981 20.2839L58.7348 20.3993C58.7348 20.3993 58.7348 20.4437 58.6807 20.4704L58.5904 20.5769L58.4549 20.6924C58.3827 20.7457 58.3015 20.7812 58.2292 20.8256C58.157 20.87 58.148 20.8789 58.1118 20.8878C57.9894 20.9405 57.8573 20.9678 57.7236 20.9677H55.9178L56.6311 21.767V21.8291C56.6769 21.9113 56.7046 22.0021 56.7123 22.0955L57.1096 28.7915V29.0313C57.1096 29.0313 57.1096 29.0313 57.1096 29.0935C57.1096 29.1557 57.0464 29.1823 57.0464 29.2089Z" fill="black"/>
<path d="M0.975263 23.179C3.38638 18.3057 5.36511 13.2368 6.88939 8.0286H9.69743C8.21355 13.2242 6.29895 18.2912 3.97295 23.179H0.975263ZM19.1239 1.28819L18.1397 4.50299H30.0492L31.0334 1.28819H19.1239ZM9.9864 23.4899H13.3452C15.4519 20 17.1224 16.2728 18.3203 12.389H15.3317C14.0907 16.3078 12.2845 20.0312 9.96833 23.4455L9.9864 23.4899ZM15.8463 7.7178L14.8531 10.9859H20.5505L17.3993 21.3318H15.3407L14.3474 24.5732H19.7108L23.8462 10.9859H29.381L30.3833 7.7178H15.8463ZM13.3181 10.3021L14.3294 6.98956H16.4152L17.4083 3.73925H15.3407L16.2436 0.92409H12.8035L11.9006 3.73925H7.43111L6.43793 6.98956H10.9525L5.62528 24.591H8.9751L12.1172 14.2717L13.3001 15.4173L14.501 11.4743L13.3181 10.3021ZM24.3337 12.4956C24.4202 16.2565 23.8959 20.0069 22.7807 23.6053H25.7513C26.8729 20.0021 27.4807 16.2632 27.5571 12.4956H24.3337ZM39.9812 1.04842H36.3245L36.4238 6.72315H40.0896L39.9812 1.04842ZM32.3336 8.4993L31.2771 11.9805H33.7963L29.9589 24.591L36.4328 22.3176L37.6157 18.419L35.0333 19.307L38.3289 8.49038L32.3336 8.4993ZM40.5411 24.5732L45.0105 17.8862H41.3989L36.8843 24.5732H40.5411ZM44.8209 1.89208L40.6585 15.5327H53.841L57.9944 1.89208H44.8209ZM51.4302 12.1315H45.155L47.2317 5.28448H53.5521L51.4664 12.1315M48.0172 17.8595L48.4145 24.5466H52.0262L51.6199 17.8595H48.0172Z" fill="white"/>
<path d="M76.1895 25.0137C75.8115 25.0137 75.3545 25.0005 74.8184 24.9741C74.2822 24.9565 73.7329 24.9038 73.1704 24.8159C72.6167 24.728 72.1069 24.583 71.6411 24.3809C71.1841 24.1787 70.8369 23.9019 70.5996 23.5503C70.415 23.269 70.2876 22.9878 70.2173 22.7065C70.1558 22.4165 70.125 22.1089 70.125 21.7837C70.125 20.7114 70.2349 19.648 70.4546 18.5933C70.6831 17.5298 70.9424 16.4751 71.2324 15.4292C71.5225 14.3745 71.7773 13.3198 71.9971 12.2651C72.2256 11.2105 72.3398 10.1426 72.3398 9.06152C72.3398 8.41113 72.2651 7.76953 72.1157 7.13672C71.9751 6.49512 71.751 5.88867 71.4434 5.31738C72.5947 5.18555 73.7505 5.07568 74.9106 4.98779C76.0708 4.89111 77.231 4.84277 78.3911 4.84277C78.8921 4.84277 79.4985 4.87793 80.2105 4.94824C80.9312 5.00977 81.6738 5.12402 82.4385 5.29102C83.2031 5.45801 83.915 5.69531 84.5742 6.00293C85.2422 6.31055 85.7827 6.70166 86.1958 7.17627C86.6177 7.65088 86.8286 8.23096 86.8286 8.9165C86.8286 9.54053 86.6792 10.1118 86.3804 10.6304C86.0815 11.1489 85.6948 11.6191 85.2202 12.041C84.7456 12.4541 84.2358 12.8145 83.6909 13.1221C83.1548 13.4209 82.645 13.667 82.1616 13.8604C82.7417 13.9307 83.3525 14.0493 83.9941 14.2163C84.6445 14.3745 85.2466 14.6118 85.8003 14.9282C86.3628 15.2358 86.8198 15.6357 87.1714 16.1279C87.523 16.6201 87.6987 17.2266 87.6987 17.9473C87.6987 19.0371 87.4351 19.9819 86.9077 20.7817C86.3892 21.5815 85.7036 22.2539 84.8511 22.7988C83.9985 23.3438 83.0581 23.7788 82.0298 24.104C81.0103 24.4292 79.9907 24.6621 78.9712 24.8027C77.9517 24.9434 77.0244 25.0137 76.1895 25.0137ZM75.1216 6.93897C75.0601 8.09912 74.8887 9.24609 74.6074 10.3799C74.3262 11.5049 74.0405 12.6299 73.7505 13.7549C74.3569 13.7461 75.1084 13.7065 76.0049 13.6362C76.9102 13.5659 77.8462 13.4517 78.813 13.2935C79.7798 13.1265 80.6851 12.898 81.5288 12.6079C82.3813 12.3091 83.0713 11.9312 83.5986 11.4741C84.1348 11.0083 84.4028 10.4414 84.4028 9.77344C84.4028 9.25488 84.2402 8.81543 83.915 8.45508C83.5986 8.09473 83.1812 7.80029 82.6626 7.57178C82.1528 7.34326 81.6035 7.16748 81.0146 7.04443C80.4258 6.9126 79.8545 6.82471 79.3008 6.78076C78.7559 6.72803 78.2944 6.70166 77.9165 6.70166C77.4507 6.70166 76.9805 6.71045 76.5059 6.72803C76.04 6.74561 75.5786 6.81592 75.1216 6.93897ZM73.3154 22.5352C73.7549 22.623 74.3218 22.7022 75.0161 22.7725C75.7104 22.8428 76.4575 22.8779 77.2573 22.8779C78.1538 22.8779 79.0635 22.8032 79.9863 22.6538C80.918 22.4956 81.7705 22.2583 82.5439 21.9419C83.3262 21.6167 83.9546 21.1992 84.4292 20.6895C84.9126 20.1709 85.1543 19.5513 85.1543 18.8306C85.1543 18.2065 84.9478 17.6792 84.5347 17.2485C84.1304 16.8091 83.603 16.4531 82.9526 16.1807C82.311 15.9082 81.6211 15.6973 80.8828 15.5479C80.1533 15.3984 79.4502 15.2974 78.7734 15.2446C78.0967 15.1831 77.5342 15.1523 77.0859 15.1523C76.4531 15.1523 75.8247 15.1787 75.2007 15.2314C74.5767 15.2842 73.9526 15.3545 73.3286 15.4424C73.188 16.1016 73.0693 16.7607 72.9727 17.4199C72.8848 18.0791 72.8408 18.7471 72.8408 19.4238C72.8408 19.9424 72.876 20.4609 72.9463 20.9795C73.0254 21.498 73.1484 22.0166 73.3154 22.5352Z" fill="black"/>
<path d="M90.3091 22.3901C90.3091 22.6538 90.3706 22.9043 90.4937 23.1416C90.6167 23.3789 90.7661 23.5898 90.9419 23.7744C90.6519 24.0205 90.2827 24.271 89.8345 24.5259C89.3862 24.772 88.9424 24.895 88.5029 24.895C87.7998 24.895 87.4482 24.5171 87.4482 23.7612C87.4482 23.1812 87.5977 22.5527 87.8965 21.876C88.2041 21.1992 88.582 20.5181 89.0303 19.8325C89.4873 19.147 89.9531 18.4966 90.4277 17.8813C90.9023 17.2661 91.3154 16.73 91.667 16.273C92.1328 15.6577 92.5986 15.0425 93.0645 14.4272C93.5303 13.812 93.9829 13.1924 94.4224 12.5684C94.8003 12.041 95.2354 11.4302 95.7275 10.7358C96.2197 10.0327 96.6504 9.31201 97.0195 8.57373C97.3975 7.82666 97.5864 7.12354 97.5864 6.46436C97.5864 6.271 97.5645 6.08203 97.5205 5.89746C97.4766 5.71289 97.4194 5.53271 97.3491 5.35693C97.6128 5.23389 97.916 5.11523 98.2588 5.00098C98.6016 4.88672 98.918 4.82959 99.208 4.82959C100.017 4.82959 100.649 4.979 101.106 5.27783C101.563 5.56787 101.994 6.05566 102.398 6.74121C102.759 7.34766 103.031 8.04199 103.216 8.82422C103.4 9.60645 103.541 10.4019 103.638 11.2105C103.743 12.019 103.844 12.7705 103.941 13.4648C104.055 14.2559 104.191 15.0996 104.35 15.9961C104.517 16.8926 104.728 17.7715 104.982 18.6328C105.246 19.4941 105.576 20.272 105.971 20.9663C106.314 21.5552 106.775 22.0649 107.355 22.4956C107.944 22.9175 108.533 23.2822 109.122 23.5898C108.92 23.8711 108.643 24.1611 108.292 24.46C107.949 24.75 107.593 24.895 107.224 24.895C106.248 24.895 105.492 24.6841 104.956 24.2622C104.42 23.8315 103.928 23.2119 103.479 22.4033C103.189 21.8848 102.948 21.3618 102.754 20.8345C102.561 20.2983 102.403 19.7578 102.28 19.2129C101.331 19.2832 100.377 19.3272 99.4189 19.3447C98.4609 19.3623 97.5073 19.3711 96.5581 19.3711C95.7231 19.3711 94.8926 19.3623 94.0664 19.3447C93.2402 19.3184 92.4141 19.2744 91.5879 19.2129C91.2188 19.8369 90.9111 20.4258 90.665 20.9795C90.4277 21.5244 90.3091 21.9946 90.3091 22.3901ZM97.3096 17.644C98.083 17.644 98.8564 17.6528 99.6299 17.6704C100.412 17.6792 101.194 17.688 101.977 17.6968C101.81 16.6772 101.669 15.6533 101.555 14.625C101.449 13.5879 101.282 12.564 101.054 11.5532C100.834 10.5425 100.474 9.55371 99.9727 8.58691C99.8057 8.27051 99.6035 7.94531 99.3662 7.61133C98.874 8.67481 98.2983 9.68994 97.6392 10.6567C96.98 11.6147 96.3208 12.5596 95.6616 13.4912C95.3452 13.9395 94.9014 14.5327 94.3301 15.271C93.7676 16.0093 93.2051 16.7871 92.6426 17.6045C93.4072 17.6221 94.1763 17.6353 94.9497 17.644C95.7319 17.644 96.5186 17.644 97.3096 17.644Z" fill="black"/>
<path d="M112.444 14.7832H112.458C112.66 13.8955 112.835 13.0078 112.985 12.1201C113.134 11.2236 113.209 10.3228 113.209 9.41748C113.209 8.72315 113.13 8.02881 112.972 7.33447C112.822 6.64014 112.537 6.01172 112.115 5.44922C112.414 5.2998 112.756 5.15479 113.143 5.01416C113.53 4.87354 113.886 4.80322 114.211 4.80322C114.958 4.80322 115.459 5.04932 115.714 5.5415C115.978 6.0249 116.109 6.5874 116.109 7.229C116.109 8.47705 115.934 9.74268 115.582 11.0259C115.23 12.3003 114.927 13.5527 114.672 14.7832H114.633C114.624 14.8096 114.62 14.8315 114.62 14.8491C115.49 14.5767 116.29 14.2295 117.019 13.8076C117.749 13.3857 118.456 12.9155 119.142 12.397C119.827 11.8784 120.557 11.3379 121.33 10.7754C121.901 10.3447 122.499 9.87891 123.123 9.37793C123.756 8.87695 124.362 8.36719 124.942 7.84863C125.531 7.33008 126.041 6.8291 126.472 6.3457C126.911 5.85352 127.223 5.41406 127.408 5.02734C127.627 5.02734 127.882 5.0625 128.172 5.13281C128.462 5.19434 128.717 5.30859 128.937 5.47559C129.157 5.63379 129.267 5.85352 129.267 6.13477C129.267 6.37207 129.034 6.72803 128.568 7.20264C128.102 7.66846 127.491 8.2002 126.735 8.79785C125.979 9.39551 125.153 10.0151 124.257 10.6567C123.369 11.2983 122.499 11.9136 121.646 12.5024C121.242 12.7837 120.82 13.0693 120.381 13.3594C119.95 13.6494 119.506 13.9395 119.049 14.2295C119.708 15.0117 120.363 15.7939 121.014 16.5762C121.673 17.3584 122.332 18.1362 122.991 18.9097C123.826 19.8853 124.674 20.6939 125.536 21.3355C126.397 21.9771 127.491 22.3682 128.818 22.5088C128.757 22.8691 128.629 23.2427 128.436 23.6294C128.251 24.0161 128.005 24.3413 127.698 24.605C127.399 24.8599 127.039 24.9873 126.617 24.9873C126.089 24.9873 125.58 24.8335 125.087 24.5259C124.595 24.2183 124.138 23.8535 123.716 23.4316C123.294 23.001 122.925 22.6011 122.609 22.2319C121.66 21.1333 120.724 20.0127 119.801 18.8701C118.887 17.7188 117.973 16.5674 117.059 15.416C116.602 15.6709 116.131 15.917 115.648 16.1543C115.173 16.3916 114.686 16.6157 114.185 16.8267C114.088 17.3188 114 17.811 113.921 18.3032C113.851 18.7954 113.815 19.2832 113.815 19.7666C113.815 20.5313 113.943 21.2607 114.198 21.9551C114.461 22.6406 114.936 23.2427 115.622 23.7612C115.455 23.8931 115.235 24.0513 114.962 24.2358C114.69 24.4116 114.409 24.5698 114.119 24.7105C113.837 24.8511 113.591 24.9214 113.38 24.9214C112.528 24.9214 111.943 24.6401 111.627 24.0776C111.319 23.5064 111.166 22.8032 111.166 21.9683C111.166 21.3355 111.218 20.6631 111.324 19.9512C111.429 19.2305 111.557 18.5317 111.706 17.855C111.855 17.1782 111.996 16.5718 112.128 16.0356C112.269 15.4907 112.374 15.0732 112.444 14.7832Z" fill="black"/>
<path d="M129.596 17.1694C129.262 16.8355 129.095 16.4355 129.095 15.9697C129.095 15.4775 129.249 15.1084 129.557 14.8623C129.873 14.6074 130.264 14.48 130.73 14.48C131.67 14.48 132.611 14.5239 133.551 14.6118C134.5 14.6997 135.445 14.7437 136.386 14.7437C136.588 14.7437 136.79 14.748 136.992 14.7568C137.194 14.7568 137.396 14.7568 137.599 14.7568C137.845 14.7568 138.086 14.7524 138.324 14.7437C138.57 14.7349 138.812 14.7085 139.049 14.6646C139.137 14.7085 139.185 14.7744 139.194 14.8623C139.211 14.9502 139.22 15.0381 139.22 15.126C139.22 15.7939 139.031 16.2905 138.653 16.6157C138.284 16.9409 137.823 17.1519 137.269 17.2485C136.724 17.3452 136.188 17.3936 135.661 17.3936C134.817 17.3936 133.978 17.3364 133.143 17.2222C132.308 17.1079 131.468 17.0508 130.625 17.0508C130.458 17.0508 130.286 17.0596 130.11 17.0772C129.935 17.0859 129.763 17.1167 129.596 17.1694Z" fill="black"/>
<path d="M143.505 22.6143C143.505 21.2783 143.698 19.96 144.085 18.6592C144.472 17.3496 144.814 16.0576 145.113 14.7832C145.315 13.8955 145.491 13.0078 145.641 12.1201C145.79 11.2236 145.865 10.3228 145.865 9.41748C145.865 8.72315 145.786 8.02881 145.627 7.33447C145.478 6.64014 145.192 6.01172 144.771 5.44922C145.069 5.2998 145.412 5.15479 145.799 5.01416C146.186 4.87354 146.542 4.80322 146.867 4.80322C147.614 4.80322 148.115 5.04932 148.37 5.5415C148.633 6.0249 148.765 6.5874 148.765 7.229C148.765 8.47705 148.589 9.74268 148.238 11.0259C147.886 12.3003 147.583 13.5527 147.328 14.7832C147.328 14.792 147.324 14.8008 147.315 14.8096C147.315 14.8184 147.315 14.8272 147.315 14.8359C147.086 15.9258 146.845 17.0244 146.59 18.1318C146.335 19.2393 146.208 20.3555 146.208 21.4805C146.208 21.8057 146.216 22.1001 146.234 22.3638C147.324 22.4077 148.409 22.4385 149.49 22.4561C150.58 22.4648 151.67 22.4692 152.76 22.4692C153.05 22.4692 153.423 22.4692 153.88 22.4692C154.346 22.4692 154.834 22.4605 155.344 22.4429C155.854 22.4253 156.328 22.3945 156.768 22.3506C157.216 22.3066 157.563 22.2451 157.809 22.166C157.721 23.0449 157.479 23.6865 157.084 24.0908C156.697 24.4863 156.201 24.7368 155.594 24.8423C154.988 24.9478 154.315 25.0005 153.577 25.0005C152.566 25.0005 151.551 24.9565 150.532 24.8687C149.521 24.7808 148.506 24.6841 147.486 24.5786C147.372 24.561 147.249 24.5435 147.117 24.5259C146.985 24.5083 146.871 24.4907 146.774 24.4731C146.317 24.7896 145.838 24.9478 145.337 24.9478C144.617 24.9478 144.129 24.7148 143.874 24.249C143.628 23.7832 143.505 23.2383 143.505 22.6143Z" fill="black"/>
<path d="M160.314 22.3901C160.314 22.6538 160.375 22.9043 160.499 23.1416C160.622 23.3789 160.771 23.5898 160.947 23.7744C160.657 24.0205 160.288 24.271 159.839 24.5259C159.391 24.772 158.947 24.895 158.508 24.895C157.805 24.895 157.453 24.5171 157.453 23.7612C157.453 23.1812 157.603 22.5527 157.901 21.876C158.209 21.1992 158.587 20.5181 159.035 19.8325C159.492 19.147 159.958 18.4966 160.433 17.8813C160.907 17.2661 161.32 16.73 161.672 16.273C162.138 15.6577 162.604 15.0425 163.069 14.4272C163.535 13.812 163.988 13.1924 164.427 12.5684C164.805 12.041 165.24 11.4302 165.732 10.7358C166.225 10.0327 166.655 9.31201 167.024 8.57373C167.402 7.82666 167.591 7.12354 167.591 6.46436C167.591 6.271 167.569 6.08203 167.525 5.89746C167.481 5.71289 167.424 5.53271 167.354 5.35693C167.618 5.23389 167.921 5.11523 168.264 5.00098C168.606 4.88672 168.923 4.82959 169.213 4.82959C170.021 4.82959 170.654 4.979 171.111 5.27783C171.568 5.56787 171.999 6.05566 172.403 6.74121C172.764 7.34766 173.036 8.04199 173.221 8.82422C173.405 9.60645 173.546 10.4019 173.643 11.2105C173.748 12.019 173.849 12.7705 173.946 13.4648C174.06 14.2559 174.196 15.0996 174.354 15.9961C174.521 16.8926 174.732 17.7715 174.987 18.6328C175.251 19.4941 175.581 20.272 175.976 20.9663C176.319 21.5552 176.78 22.0649 177.36 22.4956C177.949 22.9175 178.538 23.2822 179.127 23.5898C178.925 23.8711 178.648 24.1611 178.296 24.46C177.954 24.75 177.598 24.895 177.229 24.895C176.253 24.895 175.497 24.6841 174.961 24.2622C174.425 23.8315 173.933 23.2119 173.484 22.4033C173.194 21.8848 172.953 21.3618 172.759 20.8345C172.566 20.2983 172.408 19.7578 172.285 19.2129C171.335 19.2832 170.382 19.3272 169.424 19.3447C168.466 19.3623 167.512 19.3711 166.563 19.3711C165.728 19.3711 164.897 19.3623 164.071 19.3447C163.245 19.3184 162.419 19.2744 161.593 19.2129C161.224 19.8369 160.916 20.4258 160.67 20.9795C160.433 21.5244 160.314 21.9946 160.314 22.3901ZM167.314 17.644C168.088 17.644 168.861 17.6528 169.635 17.6704C170.417 17.6792 171.199 17.688 171.981 17.6968C171.814 16.6772 171.674 15.6533 171.56 14.625C171.454 13.5879 171.287 12.564 171.059 11.5532C170.839 10.5425 170.479 9.55371 169.978 8.58691C169.811 8.27051 169.608 7.94531 169.371 7.61133C168.879 8.67481 168.303 9.68994 167.644 10.6567C166.985 11.6147 166.326 12.5596 165.667 13.4912C165.35 13.9395 164.906 14.5327 164.335 15.271C163.772 16.0093 163.21 16.7871 162.647 17.6045C163.412 17.6221 164.181 17.6353 164.955 17.644C165.737 17.644 166.523 17.644 167.314 17.644Z" fill="black"/>
<path d="M182.805 24.9214C182.269 24.9214 181.865 24.7808 181.592 24.4995C181.32 24.2183 181.135 23.8623 181.039 23.4316C180.942 23.001 180.894 22.5703 180.894 22.1397C180.894 21.041 180.999 19.9556 181.21 18.8833C181.43 17.811 181.68 16.7432 181.961 15.6797C182.243 14.6074 182.489 13.5352 182.7 12.4629C182.919 11.3818 183.029 10.2876 183.029 9.18018C183.029 8.54736 182.963 7.91455 182.832 7.28174C182.7 6.64893 182.454 6.06885 182.093 5.5415C182.375 5.33936 182.673 5.16797 182.99 5.02734C183.315 4.87793 183.653 4.80322 184.005 4.80322C184.849 4.80322 185.591 5.02734 186.233 5.47559C186.883 5.91504 187.45 6.48633 187.934 7.18945C188.417 7.88379 188.839 8.61768 189.199 9.39111C189.568 10.1558 189.889 10.8633 190.162 11.5137C190.689 12.7529 191.199 13.9219 191.691 15.0205C192.183 16.1104 192.737 17.1519 193.352 18.145C193.976 19.1294 194.75 20.0786 195.672 20.9927C195.91 19.7007 196.2 18.4219 196.542 17.1563C196.885 15.8906 197.184 14.6074 197.439 13.3066C197.703 12.0059 197.826 10.6567 197.808 9.25928C197.799 8.6001 197.729 7.94092 197.597 7.28174C197.465 6.62256 197.21 6.01611 196.833 5.4624C197.061 5.33057 197.351 5.18994 197.703 5.04053C198.054 4.88232 198.362 4.80322 198.626 4.80322C199.03 4.80322 199.329 4.91748 199.522 5.146C199.724 5.37451 199.856 5.66016 199.917 6.00293C199.988 6.33691 200.023 6.66211 200.023 6.97852C200.023 8.08594 199.904 9.18018 199.667 10.2612C199.43 11.3335 199.153 12.4058 198.836 13.478C198.52 14.5415 198.243 15.6094 198.006 16.6816C197.769 17.7539 197.65 18.8438 197.65 19.9512C197.65 20.6543 197.755 21.3267 197.966 21.9683C198.177 22.6011 198.577 23.1372 199.166 23.5767C198.99 23.9019 198.744 24.2095 198.428 24.4995C198.12 24.7808 197.764 24.9214 197.36 24.9214C196.49 24.9214 195.69 24.6885 194.96 24.2227C194.231 23.7481 193.554 23.1108 192.93 22.311C192.306 21.5024 191.722 20.5972 191.177 19.5952C190.641 18.5845 190.126 17.543 189.634 16.4707C189.142 15.3984 188.659 14.3569 188.184 13.3462C187.718 12.3355 187.248 11.4214 186.773 10.604C186.299 9.78662 185.802 9.14063 185.284 8.66602C185.038 9.89649 184.721 11.1357 184.334 12.3838C183.957 13.623 183.618 14.8755 183.319 16.1411C183.021 17.4067 182.871 18.6812 182.871 19.9644C182.871 20.6411 182.972 21.3003 183.174 21.9419C183.376 22.5835 183.759 23.124 184.321 23.5635C184.189 23.8096 183.983 24.0996 183.702 24.4336C183.42 24.7588 183.122 24.9214 182.805 24.9214Z" fill="black"/>
</svg>
